<svg version="1.2" xmlns="http://www.w3.org/2000/svg" viewBox="0 0 501 498" width="501" height="498">
	<style>
		.s0 { opacity: 1;fill: #0f6970 } 
	</style>
	<path id="Path 0" fill-rule="evenodd" class="s0" d="m43 7h442v486l-2.75-0.34c-1.51-0.19-3.43-0.65-4.25-1.03-0.82-0.38-2.18-0.84-3-1.01-0.82-0.18-2.18-0.59-3-0.93-0.82-0.33-7.57-2.69-15-5.24-7.43-2.56-18.9-6.42-25.5-8.59-6.6-2.17-12.9-4.35-14-4.85-1.1-0.5-6.05-2.25-11-3.9-4.95-1.65-18.23-6.22-29.5-10.15-11.27-3.93-25.9-8.93-32.5-11.1-6.6-2.17-12.9-4.37-14-4.89-1.1-0.52-7.4-2.73-14-4.92-6.6-2.19-18.52-6.27-26.5-9.08-7.98-2.8-17.2-5.97-26.5-9l-6 2.17c-3.3 1.19-12.3 4.36-20 7.04-7.7 2.68-19.4 6.68-26 8.89-6.6 2.2-12.9 4.43-14 4.94-1.1 0.51-7.4 2.71-14 4.9-6.6 2.18-17.85 6-25 8.49-7.15 2.49-19.53 6.82-27.5 9.62-7.97 2.8-15.85 5.48-17.5 5.96-1.65 0.47-9.53 3.16-17.5 5.97-7.97 2.82-15.17 5.31-16 5.54-0.83 0.23-6.67 2.25-13 4.49-6.33 2.25-12.63 4.33-14 4.62-1.38 0.3-2.95 0.9-3.5 1.34-0.55 0.43-2.23 0.96-6.46 1.56zm208.24 102c-2.99 9.08-5.59 17.17-5.76 18-0.18 0.83-2.83 9.15-5.89 18.5-3.06 9.35-6.05 18.35-6.65 20-0.59 1.65-1.19 3.45-1.32 4-0.14 0.55-1.01 3.59-1.93 6.75-0.93 3.16-1.8 5.85-1.94 5.98-0.14 0.13-29.23 0.47-64.65 0.75l-64.4 0.52c9.92 6.92 13.35 9.39 14.01 9.96 0.67 0.57 1.8 1.51 2.5 2.08 0.71 0.57 3.54 2.57 6.29 4.44 2.75 1.87 6.57 4.58 8.5 6.02 1.92 1.45 7.1 5.27 11.5 8.5 4.4 3.22 9.91 7.24 12.25 8.93 2.34 1.69 7.52 5.44 11.5 8.34 3.99 2.9 13.1 9.59 20.25 14.87 7.15 5.27 13.79 9.99 14.75 10.47 0.96 0.49 1.75 1.57 1.75 2.39 0 0.82-1.19 5.21-2.63 9.75-1.45 4.54-5.22 16.12-8.38 25.75-3.16 9.62-8.35 25.6-11.53 35.5-3.17 9.9-8.29 25.71-11.37 35.13-3.07 9.41-5.14 16.89-4.59 16.6 0.55-0.29 3.25-2.18 6-4.2 2.75-2.03 8.6-6.3 13-9.51 4.4-3.2 9.9-7.22 12.21-8.92 2.32-1.71 6.11-4.45 8.42-6.1 2.32-1.65 7.85-5.71 12.29-9.03 4.44-3.31 9.05-6.68 10.24-7.5 1.19-0.81 5.91-4.15 10.5-7.43 4.59-3.28 9.01-6.52 9.84-7.2 0.82-0.69 6-4.46 11.5-8.38 8.3-5.93 10.34-6.98 12-6.16 1.1 0.53 7.05 4.74 13.22 9.34 6.17 4.6 13.75 10.16 16.84 12.36 3.1 2.2 6.44 4.68 7.44 5.5 1 0.82 4.36 3.3 7.48 5.5 3.11 2.2 7.54 5.39 9.84 7.08 2.3 1.69 7.55 5.55 11.68 8.56 4.12 3.01 9.07 6.56 11 7.89 1.92 1.32 4.02 2.87 4.65 3.44 0.64 0.57 3.72 2.83 6.87 5.03 3.14 2.2 7.34 5.25 9.34 6.78 2 1.54 3.98 2.77 4.39 2.75 0.41-0.01 0.54-0.37 0.29-0.78-0.26-0.41-0.67-1.65-0.91-2.75-0.25-1.1-2.92-9.43-5.94-18.5-3.02-9.07-8.29-25.27-11.72-36-3.42-10.73-8.7-26.93-11.72-36-3.02-9.07-6.34-19.31-7.37-22.75l-1.88-6.25c8.14-5.9 12.3-8.94 14.5-10.56 2.19-1.62 5.57-4.02 7.5-5.35 1.92-1.32 4.09-3.01 4.82-3.75 0.73-0.74 1.63-1.33 2-1.32 0.37 0.01 1.58-0.78 2.68-1.77 1.1-0.98 5.15-4 9-6.71 3.85-2.7 7.22-5.2 7.5-5.55 0.27-0.34 2.75-2.15 5.5-4.01 2.75-1.86 5.67-4.03 6.5-4.81 0.82-0.79 2.4-1.91 3.5-2.49 1.1-0.59 5.64-3.79 10.08-7.12 4.45-3.33 9.97-7.41 12.27-9.06 2.3-1.65 7.21-5.25 10.91-8l6.74-5c-113.89-0.38-127.23-0.69-128.11-1.71-0.6-0.71-2.83-6.69-4.94-13.29-2.11-6.6-3.94-12.45-4.06-13-0.11-0.55-2.67-8.43-5.67-17.5-3.01-9.07-8.16-24.83-11.45-35-3.29-10.18-7.69-23.9-9.78-30.5-2.09-6.6-4.07-12.29-4.4-12.65-0.32-0.36-3.02 6.84-6 16-2.97 9.16-7.86 24.07-10.85 33.15z"/>
</svg>